<svg xmlns="http://www.w3.org/2000/svg" width="1200" height="700" viewBox="0 0 1200 700">
  <defs>
    <linearGradient id="g" x1="0" y1="0" x2="1" y2="1">
      <stop offset="0" stop-color="#6ee7ff" stop-opacity="0.55"/>
      <stop offset="1" stop-color="#a78bfa" stop-opacity="0.55"/>
    </linearGradient>
    <linearGradient id="sky" x1="0" y1="0" x2="0" y2="1">
      <stop offset="0" stop-color="#0b1220"/>
      <stop offset="1" stop-color="#121c35"/>
    </linearGradient>
  </defs>

  <rect width="1200" height="700" fill="url(#sky)"/>
  <rect x="70" y="170" width="1060" height="440" rx="26" fill="rgba(255,255,255,0.06)" stroke="rgba(255,255,255,0.16)"/>
  <rect x="110" y="210" width="980" height="360" rx="22" fill="url(#g)" opacity="0.42"/>

  <!-- windows -->
  <g opacity="0.9">
    <g fill="rgba(255,255,255,0.18)">
      <rect x="170" y="250" width="90" height="70" rx="10"/>
      <rect x="290" y="250" width="90" height="70" rx="10"/>
      <rect x="410" y="250" width="90" height="70" rx="10"/>
      <rect x="530" y="250" width="90" height="70" rx="10"/>
      <rect x="650" y="250" width="90" height="70" rx="10"/>
      <rect x="770" y="250" width="90" height="70" rx="10"/>
      <rect x="890" y="250" width="90" height="70" rx="10"/>

      <rect x="170" y="350" width="90" height="70" rx="10"/>
      <rect x="290" y="350" width="90" height="70" rx="10"/>
      <rect x="410" y="350" width="90" height="70" rx="10"/>
      <rect x="530" y="350" width="90" height="70" rx="10"/>
      <rect x="650" y="350" width="90" height="70" rx="10"/>
      <rect x="770" y="350" width="90" height="70" rx="10"/>
      <rect x="890" y="350" width="90" height="70" rx="10"/>
    </g>
  </g>

  <!-- entrance -->
  <rect x="520" y="455" width="160" height="155" rx="18" fill="rgba(0,0,0,0.25)" stroke="rgba(255,255,255,0.16)"/>
  <rect x="540" y="478" width="120" height="132" rx="14" fill="rgba(255,255,255,0.10)"/>

  <text x="100" y="120" fill="rgba(255,255,255,0.92)" font-family="Segoe UI, Arial" font-size="44" font-weight="800">Exterior</text>
  <text x="100" y="155" fill="rgba(255,255,255,0.62)" font-family="Segoe UI, Arial" font-size="20">Placeholder image (replace with your own)</text>
</svg>
